HIERARCHY
ROOT SpineBase
{
  OFFSET 0.000000 0.000000 0.000000
  CHANNELS 6 Xposition Yposition Zposition Zrotation Xrotation Yrotation
  JOINT SpineMid
  {
    OFFSET -0.000000 29.546962 0.000000
    CHANNELS 3 Zrotation Xrotation Yrotation
    JOINT SpineShoulder
    {
      OFFSET -0.100498 21.906074 -0.626405
      CHANNELS 3 Zrotation Xrotation Yrotation
      JOINT Neck
      {
        OFFSET -0.025715 7.279268 -0.492911
        CHANNELS 3 Zrotation Xrotation Yrotation
        JOINT Head
        {
          OFFSET -5.073766 13.307043 -0.319470
          CHANNELS 3 Zrotation Xrotation Yrotation
          End Site
          {
            OFFSET 0 0 0
          }
        }
      }
      JOINT ShoulderLeft
      {
        OFFSET -15.017215 -4.759423 8.184460
        CHANNELS 3 Zrotation Xrotation Yrotation
        JOINT ElbowLeft
        {
          OFFSET -0.797579 -26.624720 1.402895
          CHANNELS 3 Zrotation Xrotation Yrotation
          JOINT WristLeft
          {
            OFFSET 0.739517 -19.353884 -4.941685
            CHANNELS 3 Zrotation Xrotation Yrotation
            JOINT HandLeft
            {
              OFFSET 1.166547 -5.203886 -0.990820
              CHANNELS 3 Zrotation Xrotation Yrotation
              JOINT HandTipLeft
              {
                OFFSET 1.204221 -6.269236 -0.653736
                CHANNELS 3 Zrotation Xrotation Yrotation
                End Site
                {
                  OFFSET 0 0 0
                }
              }
              JOINT ThumbLeft
              {
                OFFSET -2.138795 -1.618644 -1.656226
                CHANNELS 3 Zrotation Xrotation Yrotation
                End Site
                {
                  OFFSET 0 0 0
                }
              }
            }
          }
        }
      }
      JOINT ShoulderRight
      {
        OFFSET 13.551080 -2.859718 -9.411581
        CHANNELS 3 Zrotation Xrotation Yrotation
        JOINT ElbowRight
        {
          OFFSET 3.971143 -23.953587 -3.714973
          CHANNELS 3 Zrotation Xrotation Yrotation
          JOINT WristRight
          {
            OFFSET -3.531014 -19.804938 -4.098461
            CHANNELS 3 Zrotation Xrotation Yrotation
            JOINT HandRight
            {
              OFFSET -1.254087 -5.905159 0.500187
              CHANNELS 3 Zrotation Xrotation Yrotation
              JOINT HandTipRight
              {
                OFFSET -0.989769 -6.727553 -0.173188
                CHANNELS 3 Zrotation Xrotation Yrotation
                End Site
                {
                  OFFSET 0 0 0
                }
              }
              JOINT ThumbRight
              {
                OFFSET 2.561571 -2.584027 -1.958702
                CHANNELS 3 Zrotation Xrotation Yrotation
                End Site
                {
                  OFFSET 0 0 0
                }
              }
            }
          }
        }
      }
    }
  }
  JOINT HipLeft
  {
    OFFSET -6.053785 0.265352 -0.148710
    CHANNELS 3 Zrotation Xrotation Yrotation
    JOINT KneeLeft
    {
      OFFSET 7.220203 -30.159141 5.935441
      CHANNELS 3 Zrotation Xrotation Yrotation
      JOINT AnkleLeft
      {
        OFFSET 6.905798 -30.829338 3.699378
        CHANNELS 3 Zrotation Xrotation Yrotation
        JOINT FootLeft
        {
          OFFSET -6.432263 -3.188538 -12.934440
          CHANNELS 3 Zrotation Xrotation Yrotation
          End Site
          {
            OFFSET 0 0 0
          }
        }
      }
    }
  }
  JOINT HipRight
  {
    OFFSET 6.650424 1.423344 -6.447141
    CHANNELS 3 Zrotation Xrotation Yrotation
    JOINT KneeRight
    {
      OFFSET 8.830493 -25.473317 1.902454
      CHANNELS 3 Zrotation Xrotation Yrotation
      JOINT AnkleRight
      {
        OFFSET 3.290291 -35.383868 8.930263
        CHANNELS 3 Zrotation Xrotation Yrotation
        JOINT FootRight
        {
          OFFSET -1.407916 -8.135865 -4.938713
          CHANNELS 3 Zrotation Xrotation Yrotation
          End Site
          {
            OFFSET 0 0 0
          }
        }
      }
    }
  }
}
MOTION
Frames: 9
Frame Time: 0.033333
-29.971915 68.743837 344.697867 1.345139 -0.862779 43.741021 -0.783166 -0.062830 -43.703638 -0.452059 -0.327375 0.008699 0.500119 0.220969 -0.598787 0.000000 0.000000 0.000000 -2.641785 0.651117 -0.050791 -0.559212 -0.490734 0.743722 1.142958 -9.836433 -3.154765 0.021831 22.489829 4.699690 0.000000 0.000000 0.000000 0.000000 0.000000 0.000000 -62.002223 46.741972 47.469592 -20.670130 15.634501 -20.098174 -3.884346 1.394754 -28.290712 -9.796155 -6.933154 4.521688 0.000000 0.000000 0.000000 0.000000 0.000000 0.000000 -3.054581 6.807468 -44.165612 5.582704 -1.893512 0.727674 11.546217 -21.858893 -9.479905 0.000000 0.000000 0.000000 -3.674232 1.142649 -44.702838 2.976227 3.119703 1.241943 -17.099551 12.636573 8.287739 0.000000 0.000000 0.000000
-30.009668 68.688803 344.682369 1.279542 -1.000521 43.639200 -0.816018 -0.079709 -43.603166 -0.421190 -0.320764 0.007995 0.888803 -0.011928 -0.742658 0.000000 0.000000 0.000000 -2.599589 0.815571 -0.040863 -0.553276 -0.493684 0.743707 1.140631 -10.999951 -3.450732 0.076270 24.953399 5.169137 0.000000 0.000000 0.000000 0.000000 0.000000 0.000000 -61.646816 46.584685 47.156888 -20.652627 16.034446 -19.704029 -5.716943 2.526941 -29.259368 -8.840284 -9.696080 2.655614 0.000000 0.000000 0.000000 0.000000 0.000000 0.000000 -2.864021 6.768811 -44.052413 5.478089 -1.873892 0.709515 14.208038 -28.618896 -16.227113 0.000000 0.000000 0.000000 -3.284830 1.119688 -44.547112 2.649638 2.958819 1.167598 -20.158825 15.877182 10.214618 0.000000 0.000000 0.000000
-30.006614 68.661634 344.658276 1.271082 -1.120932 43.564805 -0.829609 -0.067356 -43.528071 -0.387297 -0.313410 0.009281 0.960962 -0.286884 -0.886790 0.000000 0.000000 0.000000 -2.610089 0.928012 -0.036086 -0.548610 -0.495399 0.743666 1.617925 -11.153845 -3.538518 -2.873424 24.604688 6.306238 0.000000 0.000000 0.000000 0.000000 0.000000 0.000000 -61.373728 46.398269 46.833084 -20.768296 16.503141 -19.323960 -6.441698 3.810435 -29.392686 -7.154355 -13.155835 0.476551 0.000000 0.000000 0.000000 0.000000 0.000000 0.000000 -2.804430 6.792651 -43.981773 5.455396 -1.820484 0.714931 16.466527 -38.359853 -26.431864 0.000000 0.000000 0.000000 -3.056194 1.178980 -44.434193 2.438899 2.816294 1.109068 -20.943256 16.954987 10.796248 0.000000 0.000000 0.000000
-30.011232 68.633186 344.623716 1.240899 -1.236084 43.489514 -0.837511 -0.066754 -43.452924 -0.371911 -0.311844 0.009089 0.996585 -0.497039 -1.008217 0.000000 0.000000 0.000000 -2.592469 1.045478 -0.029678 -0.544157 -0.496774 0.743659 1.185645 -12.759307 -3.905613 3.331439 32.742435 5.009644 0.000000 0.000000 0.000000 0.000000 0.000000 0.000000 -61.547609 46.300519 46.945497 -20.596660 16.519707 -19.193953 -6.719979 4.749145 -29.214284 -8.036629 -14.858025 -1.560437 0.000000 0.000000 0.000000 0.000000 0.000000 0.000000 -2.736901 6.771073 -43.914344 5.417120 -1.744667 0.721397 16.795834 -45.212792 -34.091343 0.000000 0.000000 0.000000 -2.842520 1.177351 -44.339071 1.595545 2.361907 0.902178 -19.253470 16.397416 10.484478 0.000000 0.000000 0.000000
-30.041218 68.585525 344.633338 1.174288 -1.391558 43.494044 -0.832398 -0.063565 -43.458779 -0.368708 -0.297550 0.007200 0.964870 -0.502032 -1.060280 0.000000 0.000000 0.000000 -2.534453 1.180372 -0.020581 -0.540155 -0.497628 0.743688 0.578875 -13.792163 -4.125439 5.995953 36.011442 4.230262 0.000000 0.000000 0.000000 0.000000 0.000000 0.000000 -61.821172 46.265273 47.217154 -20.425721 16.282488 -19.215047 -6.877567 5.695505 -28.878359 -6.425093 -15.506680 -1.194272 0.000000 0.000000 0.000000 0.000000 0.000000 0.000000 -2.479224 6.806644 -43.895257 5.321319 -1.795131 0.691805 16.998680 -45.358532 -33.425233 0.000000 0.000000 0.000000 -2.579233 1.199866 -44.322856 1.487990 2.317900 0.882001 -16.250238 13.066155 8.695972 0.000000 0.000000 0.000000
-30.070103 68.569161 344.591677 1.087293 -1.463578 43.499693 -0.825253 -0.079630 -43.467556 -0.365513 -0.298316 0.004757 0.945451 -0.430293 -1.062150 0.000000 0.000000 0.000000 -2.470375 1.259545 -0.013861 -0.536807 -0.497980 0.743782 -0.256991 -14.245381 -4.184932 5.494210 33.365254 4.259756 0.000000 0.000000 0.000000 0.000000 0.000000 0.000000 -62.286554 46.118872 47.555593 -19.912010 16.087225 -19.144548 -6.889014 6.649101 -28.428522 -4.218214 -15.597721 0.054024 0.000000 0.000000 0.000000 0.000000 0.000000 0.000000 -2.341778 6.752411 -43.900687 5.271498 -1.778288 0.684647 16.894963 -38.649244 -24.539441 0.000000 0.000000 0.000000 -2.501863 1.087033 -44.364029 1.438262 2.419003 0.913189 -8.077695 3.650642 4.396437 0.000000 0.000000 0.000000
-30.060444 68.591209 344.439363 1.040320 -1.421543 43.458168 -0.798145 -0.070933 -43.428438 -0.357735 -0.296195 0.003482 0.878715 -0.486480 -1.056059 0.000000 0.000000 0.000000 -2.446850 1.190114 -0.015823 -0.534399 -0.498015 0.743882 -1.433756 -14.575943 -4.193439 8.817964 34.762463 2.971385 0.000000 0.000000 0.000000 0.000000 0.000000 0.000000 -62.869671 45.843845 47.828619 -19.100197 15.901379 -19.010527 -7.395994 7.147509 -28.539014 -2.732049 -16.348638 0.298787 0.000000 0.000000 0.000000 0.000000 0.000000 0.000000 -2.506751 6.549146 -43.910588 5.295217 -1.558866 0.731663 15.466075 -32.136424 -17.811906 0.000000 0.000000 0.000000 -2.774085 0.890747 -44.431071 1.539270 2.709410 1.015012 -3.652633 -2.235564 2.549340 0.000000 0.000000 0.000000
-30.083957 68.650401 344.263124 0.939165 -1.339716 43.527677 -0.729103 -0.081465 -43.502481 -0.348449 -0.306037 0.001660 0.774745 -0.650220 -1.074361 0.000000 0.000000 0.000000 -2.414921 1.079126 -0.019236 -0.532590 -0.498084 0.743978 -1.670325 -13.137811 -3.766072 8.225663 30.652435 2.823289 0.000000 0.000000 0.000000 0.000000 0.000000 0.000000 -63.359304 45.538757 48.001817 -18.250148 15.749856 -18.838021 -7.770741 7.483891 -28.609772 -0.986315 -14.255979 3.069214 0.000000 0.000000 0.000000 0.000000 0.000000 0.000000 -2.587196 6.284028 -44.022870 5.275121 -1.381695 0.761537 12.678747 -24.372629 -10.243270 0.000000 0.000000 0.000000 -3.294764 0.489148 -44.720601 1.718276 3.290439 1.216188 -0.143317 -6.563525 1.259359 0.000000 0.000000 0.000000
-30.067096 68.746575 344.004336 0.889469 -1.169727 43.470768 -0.691063 -0.097415 -43.448473 -0.353689 -0.332081 0.000060 0.623868 -0.691111 -1.030434 0.000000 0.000000 0.000000 -2.399704 0.920415 -0.025545 -0.531002 -0.498050 0.744088 -1.875964 -11.981341 -3.418582 10.325686 27.917303 1.565587 0.000000 0.000000 0.000000 0.000000 0.000000 0.000000 -63.719498 45.333024 48.115823 -17.707022 15.572654 -18.796466 -8.237906 7.536173 -28.905304 -1.002423 -15.128740 2.319140 0.000000 0.000000 0.000000 0.000000 0.000000 0.000000 -2.959814 5.960666 -44.054743 5.368073 -1.057345 0.842659 9.040227 -17.090479 -2.824012 0.000000 0.000000 0.000000 -3.476764 0.275416 -44.714503 1.750205 3.400301 1.253942 -4.689836 -0.400621 2.886441 0.000000 0.000000 0.000000
